# xmcd CD database file
#
# Track frame offsets:
#	150
#	22575
#	48487
#	63382
#	94097
#	112140
#	130115
#	159385
#	179412
#	195670
#	216490
#	232577
#	263675
#
# Disc length: 4440 seconds
#
# Revision: 4
# Processed by: cddbd v1.5.1PL2 Copyright (c) Steve Scherf et al.
# Submitted via: CDex 1.51
#
DISCID=aa11560d
DTITLE=氣志團 - BOY'S COLOR
DYEAR=1900
DGENRE=Rock
TTITLE0=One Night Carnival
TTITLE1=潮騒の子守唄
TTITLE2=ゴッド・スピード・ユー！
TTITLE3=恋人
TTITLE4=330
TTITLE5=D×D×D
TTITLE6=朝焼けBANZAI
TTITLE7=BOYS BLAVO !
TTITLE8=俺が俺で俺だから
TTITLE9=朝が来る度
TTITLE10=雷電
TTITLE11=一番星
TTITLE12=extra
EXTD=
EXTT0=
EXTT1=
EXTT2=
EXTT3=
EXTT4=
EXTT5=
EXTT6=
EXTT7=
EXTT8=
EXTT9=
EXTT10=
EXTT11=
EXTT12=
PLAYORDER=
